<?xml version="1.0" standalone="no"?>
<!DOCTYPE svg PUBLIC "-//W3C//DTD SVG 20010904//EN"
 "http://www.w3.org/TR/2001/REC-SVG-20010904/DTD/svg10.dtd">
<svg version="1.0" xmlns="http://www.w3.org/2000/svg"
 width="500.000000pt" height="500.000000pt" viewBox="0 0 500.000000 500.000000"
 preserveAspectRatio="xMidYMid meet">

<g transform="translate(0.000000,500.000000) scale(0.100000,-0.100000)"
fill="#000000" stroke="none">
<path d="M1025 3778 c-2 -7 -6 -85 -7 -172 -2 -114 0 -160 9 -163 6 -2 26 23
43 56 93 173 233 240 508 241 l112 0 0 -425 0 -425 130 0 130 0 0 426 0 427
148 -6 c215 -8 305 -39 390 -132 27 -30 64 -79 81 -110 50 -88 57 -73 52 116
-2 90 -5 167 -8 172 -2 4 -360 7 -794 7 -623 0 -791 -3 -794 -12z"/>
<path d="M2640 3771 c0 -11 15 -28 36 -40 76 -45 93 -154 94 -603 l0 -238 124
0 125 0 3 363 c3 348 4 364 25 410 14 30 34 54 57 68 21 12 36 29 36 40 0 18
-11 19 -250 19 -239 0 -250 -1 -250 -19z"/>
<path d="M1975 2645 c-42 -23 -63 -53 -71 -103 -8 -53 17 -126 53 -149 37 -25
105 -22 142 5 30 22 31 22 31 2 0 -15 7 -20 25 -20 24 0 25 2 25 75 l0 75 -75
0 c-73 0 -75 -1 -75 -25 0 -23 4 -25 45 -25 25 0 45 -4 45 -9 0 -16 -52 -51
-75 -51 -12 0 -34 9 -49 21 -22 18 -26 28 -26 75 0 41 5 59 20 74 29 29 85 27
114 -5 26 -28 76 -35 76 -10 0 8 -12 29 -28 46 -23 26 -36 31 -87 35 -44 4
-68 1 -90 -11z"/>
<path d="M2305 2646 c-50 -22 -68 -51 -73 -115 -8 -104 37 -154 138 -154 67 0
101 17 126 65 22 42 15 139 -12 169 -40 46 -120 61 -179 35z m122 -62 c22 -22
25 -32 21 -75 -6 -63 -24 -82 -78 -82 -54 0 -72 19 -78 82 -4 43 -1 53 21 75
17 17 37 26 57 26 20 0 40 -9 57 -26z"/>
<path d="M810 2625 c0 -23 4 -25 45 -25 l45 0 0 -110 0 -110 30 0 30 0 0 110
0 110 45 0 c41 0 45 2 45 25 l0 25 -120 0 -120 0 0 -25z"/>
<path d="M1090 2515 l0 -135 30 0 30 0 0 60 0 60 60 0 60 0 0 -60 0 -60 35 0
35 0 0 135 0 135 -35 0 -35 0 0 -55 0 -55 -60 0 -60 0 0 55 c0 54 0 55 -30 55
l-30 0 0 -135z"/>
<path d="M1382 2628 c2 -15 11 -24 26 -26 21 -3 22 -8 22 -88 0 -83 0 -84 -25
-84 -20 0 -25 -5 -25 -25 0 -25 1 -25 85 -25 84 0 85 0 85 25 0 20 -5 25 -25
25 -25 0 -25 1 -25 84 0 80 1 85 23 88 14 2 23 11 25 26 3 21 1 22 -83 22 -84
0 -86 -1 -83 -22z"/>
<path d="M1675 2638 c-2 -7 -23 -64 -45 -127 -22 -63 -40 -118 -40 -123 0 -4
13 -8 29 -8 23 0 31 6 40 30 10 29 12 30 70 30 57 0 59 -1 70 -30 8 -25 15
-30 42 -30 21 0 30 4 27 13 -3 6 -24 67 -48 135 l-43 122 -49 0 c-30 0 -50 -5
-53 -12z m70 -75 c33 -78 32 -83 -14 -83 -23 0 -41 3 -41 7 0 10 33 113 37
113 1 0 10 -17 18 -37z"/>
<path d="M2660 2515 l0 -135 95 0 c95 0 95 0 95 25 0 24 -2 25 -65 25 l-65 0
0 110 0 110 -30 0 -30 0 0 -135z"/>
<path d="M2880 2515 l0 -135 110 0 110 0 0 25 c0 24 -2 25 -75 25 l-75 0 0 35
0 35 70 0 c63 0 70 2 70 20 0 18 -7 20 -70 20 l-70 0 0 30 0 29 73 3 c66 3 72
5 75 26 3 22 2 22 -107 22 l-111 0 0 -135z"/>
<path d="M3142 2628 c2 -15 11 -24 26 -26 21 -3 22 -8 22 -88 0 -83 0 -84 -25
-84 -20 0 -25 -5 -25 -25 0 -25 1 -25 85 -25 84 0 85 0 85 25 0 20 -5 25 -25
25 -25 0 -25 1 -25 84 0 80 1 85 23 88 14 2 23 11 25 26 3 21 1 22 -83 22 -84
0 -86 -1 -83 -22z"/>
<path d="M3342 2628 c2 -19 10 -24 46 -26 l42 -3 0 -110 0 -109 35 0 35 0 0
109 0 110 43 3 c35 2 43 7 45 26 3 22 2 22 -123 22 -125 0 -126 0 -123 -22z"/>
<path d="M3620 2515 l0 -135 110 0 110 0 0 25 c0 24 -2 25 -75 25 l-75 0 0 35
0 35 70 0 c63 0 70 2 70 20 0 18 -7 20 -70 20 l-70 0 0 30 0 29 73 3 c66 3 72
5 75 26 3 22 2 22 -107 22 l-111 0 0 -135z"/>
<path d="M1688 1953 c-4 -187 -21 -240 -82 -270 -22 -10 -36 -24 -36 -35 0
-17 15 -18 250 -18 240 0 250 1 250 19 0 11 -8 22 -18 25 -30 10 -69 58 -82
101 -6 22 -14 106 -17 188 l-6 147 -127 0 -128 0 -4 -157z"/>
<path d="M2763 1950 c-12 -184 -32 -241 -90 -270 -18 -8 -33 -23 -33 -32 0
-17 41 -18 719 -18 l718 0 7 113 c4 61 9 140 12 175 6 56 5 62 -12 62 -13 0
-31 -22 -54 -61 -70 -123 -168 -195 -305 -224 -104 -22 -603 -21 -646 1 -50
25 -59 63 -59 249 l0 165 -123 0 -124 0 -10 -160z"/>
</g>
</svg>
